<svg width="63" height="63" viewBox="0 0 63 63" fill="none" xmlns="http://www.w3.org/2000/svg">
<path d="M16.12 20.8913C16.12 19.5219 16.664 18.2087 17.6323 17.2404C18.6005 16.2722 19.9138 15.7282 21.2831 15.7282C22.6524 15.7282 23.9656 16.2722 24.9339 17.2404C25.9022 18.2087 26.4461 19.5219 26.4461 20.8913C26.4461 22.2606 25.9022 23.5738 24.9339 24.5421C23.9656 25.5104 22.6524 26.0543 21.2831 26.0543C19.9138 26.0543 18.6005 25.5104 17.6323 24.5421C16.664 23.5738 16.12 22.2606 16.12 20.8913ZM21.2831 10.5652C18.5444 10.5652 15.9179 11.6531 13.9814 13.5896C12.0449 15.5261 10.957 18.1526 10.957 20.8913C10.957 23.6299 12.0449 26.2564 13.9814 28.1929C15.9179 30.1294 18.5444 31.2174 21.2831 31.2174C24.0217 31.2174 26.6482 30.1294 28.5847 28.1929C30.5212 26.2564 31.6092 23.6299 31.6092 20.8913C31.6092 18.1526 30.5212 15.5261 28.5847 13.5896C26.6482 11.6531 24.0217 10.5652 21.2831 10.5652ZM41.9352 23.4728C41.9352 22.7881 42.2072 22.1315 42.6914 21.6474C43.1755 21.1633 43.8321 20.8913 44.5168 20.8913C45.2014 20.8913 45.8581 21.1633 46.3422 21.6474C46.8263 22.1315 47.0983 22.7881 47.0983 23.4728C47.0983 24.1575 46.8263 24.8141 46.3422 25.2982C45.8581 25.7823 45.2014 26.0543 44.5168 26.0543C43.8321 26.0543 43.1755 25.7823 42.6914 25.2982C42.2072 24.8141 41.9352 24.1575 41.9352 23.4728ZM44.5168 15.7282C42.4628 15.7282 40.4929 16.5442 39.0405 17.9966C37.5881 19.4489 36.7722 21.4188 36.7722 23.4728C36.7722 25.5268 37.5881 27.4966 39.0405 28.949C40.4929 30.4014 42.4628 31.2174 44.5168 31.2174C46.5708 31.2174 48.5406 30.4014 49.993 28.949C51.4454 27.4966 52.2613 25.5268 52.2613 23.4728C52.2613 21.4188 51.4454 19.4489 49.993 17.9966C48.5406 16.5442 46.5708 15.7282 44.5168 15.7282ZM5.79395 42.8342C5.79395 39.2717 8.68525 36.3804 12.2477 36.3804H30.3184C33.8809 36.3804 36.7722 39.2717 36.7722 42.8342V43.082C36.7682 43.2702 36.7544 43.4581 36.7309 43.6448C36.6855 44.0972 36.6079 44.5458 36.4986 44.9872C36.1524 46.416 35.5297 47.7631 34.6657 48.9524C32.4766 51.9625 28.3977 54.4511 21.2831 54.4511C14.1684 54.4511 10.0896 51.9625 7.90047 48.9524C6.76843 47.3895 6.05726 45.5618 5.83525 43.6448C5.8145 43.4561 5.80072 43.2666 5.79395 43.0769V42.8342ZM10.957 42.9684C10.9784 43.24 11.0215 43.5093 11.0861 43.7739C11.2255 44.3573 11.5094 45.1369 12.0774 45.9165C13.11 47.3415 15.485 49.288 21.2831 49.288C27.076 49.288 29.451 47.3415 30.4888 45.9165C31.1137 45.0507 31.5001 44.0358 31.6092 42.9736V42.8342C31.6092 42.4919 31.4732 42.1636 31.2311 41.9215C30.989 41.6794 30.6607 41.5434 30.3184 41.5434H12.2477C11.9054 41.5434 11.5771 41.6794 11.335 41.9215C11.093 42.1636 10.957 42.4919 10.957 42.8342V42.9684ZM44.5116 51.8695C42.8913 51.8856 41.2746 51.7123 39.6945 51.3532C40.6385 49.863 41.3082 48.2158 41.6719 46.4896C42.4722 46.6239 43.4119 46.7065 44.5116 46.7065C49.1067 46.7065 50.8518 45.3021 51.5333 44.4502C51.9122 43.9786 52.1614 43.4162 52.2562 42.8187V42.7929C52.2454 42.4578 52.1047 42.14 51.8638 41.9068C51.6229 41.6736 51.3007 41.5433 50.9654 41.5434H41.863C41.6594 39.6959 41.0129 37.9247 39.9785 36.3804H50.9706C54.5331 36.3804 57.4244 39.2717 57.4244 42.8342V42.922C57.4199 43.0825 57.4078 43.2427 57.3882 43.4021C57.1833 44.9646 56.5548 46.4411 55.5708 47.672C53.6657 50.047 50.2529 51.8695 44.5168 51.8695H44.5116Z" fill="#699BF7"/>
</svg>
