<svg width="50" height="37" viewBox="0 0 50 37" fill="none" xmlns="http://www.w3.org/2000/svg">
<path d="M46.2641 0.630371H3.77963C2.84067 0.630371 1.94016 1.00337 1.27621 1.66732C0.61226 2.33127 0.239258 3.23178 0.239258 4.17074V32.4937C0.239258 33.4327 0.61226 34.3332 1.27621 34.9971C1.94016 35.6611 2.84067 36.0341 3.77963 36.0341H46.2641C47.2031 36.0341 48.1036 35.6611 48.7675 34.9971C49.4315 34.3332 49.8045 33.4327 49.8045 32.4937V4.17074C49.8045 3.23178 49.4315 2.33127 48.7675 1.66732C48.1036 1.00337 47.2031 0.630371 46.2641 0.630371ZM42.3697 4.17074L25.0219 16.1726L7.67404 4.17074H42.3697ZM3.77963 32.4937V5.78161L24.0129 19.7838C24.3092 19.9894 24.6612 20.0995 25.0219 20.0995C25.3825 20.0995 25.7346 19.9894 26.0309 19.7838L46.2641 5.78161V32.4937H3.77963Z" fill="#699BF7"/>
</svg>
